<svg xmlns="http://www.w3.org/2000/svg" viewBox="0 0 512 512">
  <defs>
    <radialGradient id="bg" cx="50%" cy="40%" r="60%">
      <stop offset="0%" stop-color="#1e0a3c"/>
      <stop offset="100%" stop-color="#09090b"/>
    </radialGradient>
  </defs>
  <rect width="512" height="512" rx="80" fill="url(#bg)"/>
  <!-- Orb dots — simplified fibonacci sphere hint -->
  <circle cx="256" cy="130" r="7"  fill="#8b5cf6" opacity="0.95"/>
  <circle cx="308" cy="158" r="5"  fill="#7c3aed" opacity="0.75"/>
  <circle cx="342" cy="205" r="5"  fill="#6d28d9" opacity="0.60"/>
  <circle cx="352" cy="260" r="6"  fill="#7c3aed" opacity="0.70"/>
  <circle cx="336" cy="314" r="5"  fill="#8b5cf6" opacity="0.65"/>
  <circle cx="300" cy="356" r="6"  fill="#a78bfa" opacity="0.75"/>
  <circle cx="256" cy="374" r="7"  fill="#a78bfa" opacity="0.85"/>
  <circle cx="210" cy="356" r="6"  fill="#a78bfa" opacity="0.75"/>
  <circle cx="174" cy="314" r="5"  fill="#8b5cf6" opacity="0.65"/>
  <circle cx="158" cy="260" r="6"  fill="#7c3aed" opacity="0.70"/>
  <circle cx="168" cy="205" r="5"  fill="#6d28d9" opacity="0.60"/>
  <circle cx="202" cy="158" r="5"  fill="#7c3aed" opacity="0.75"/>
  <!-- Inner ring -->
  <circle cx="256" cy="185" r="5"  fill="#c4b5fd" opacity="0.80"/>
  <circle cx="295" cy="215" r="4"  fill="#a78bfa" opacity="0.70"/>
  <circle cx="310" cy="257" r="4"  fill="#a78bfa" opacity="0.70"/>
  <circle cx="295" cy="300" r="4"  fill="#a78bfa" opacity="0.65"/>
  <circle cx="256" cy="320" r="5"  fill="#c4b5fd" opacity="0.75"/>
  <circle cx="216" cy="300" r="4"  fill="#a78bfa" opacity="0.65"/>
  <circle cx="200" cy="257" r="4"  fill="#a78bfa" opacity="0.70"/>
  <circle cx="216" cy="215" r="4"  fill="#a78bfa" opacity="0.70"/>
  <!-- Center -->
  <circle cx="256" cy="252" r="22" fill="#8b5cf6" opacity="0.90"/>
  <circle cx="256" cy="252" r="12" fill="#c4b5fd" opacity="0.95"/>
  <!-- Connection lines hint -->
  <line x1="256" y1="130" x2="308" y2="158" stroke="#8b5cf6" stroke-width="1.2" opacity="0.35"/>
  <line x1="308" y1="158" x2="342" y2="205" stroke="#7c3aed" stroke-width="1"   opacity="0.30"/>
  <line x1="256" y1="130" x2="202" y2="158" stroke="#8b5cf6" stroke-width="1.2" opacity="0.35"/>
  <line x1="202" y1="158" x2="168" y2="205" stroke="#7c3aed" stroke-width="1"   opacity="0.30"/>
</svg>
